<?xml version="1.0" encoding="utf-8"?>
<svg version="1.1" xmlns:xlink="http://www.w3.org/1999/xlink" width="28px" height="17px" xmlns="http://www.w3.org/2000/svg">
  <g transform="matrix(1 0 0 1 -926 -9 )">
    <path d="M 11.3928571428571 15.545703125  C 11.3809523809524 15.5944010416667  11.3928571428571 15.6541666666667  11.4285714285714 15.725  C 11.4285714285714 15.7604166666667  11.4345238095238 15.8489583333333  11.4464285714286 15.990625  C 11.4583333333333 16.1322916666667  11.4613095238095 16.249609375  11.4553571428571 16.342578125  C 11.4494047619048 16.435546875  11.4315476190476 16.5395833333333  11.4017857142857 16.6546875  C 11.3720238095238 16.7697916666667  11.3125 16.8561197916667  11.2232142857143 16.913671875  C 11.1339285714286 16.9712239583333  11.0119047619048 17  10.8571428571429 17  L 5.14285714285714 17  C 3.72619047619048 17  2.51488095238095 16.6259114583333  1.50892857142857 15.877734375  C 0.50297619047619 15.1295572916667  0 14.2286458333333  0 13.175  L 0 3.825  C 0 2.77135416666666  0.50297619047619 1.87044270833333  1.50892857142857 1.122265625  C 2.51488095238095 0.374088541666664  3.72619047619048 0  5.14285714285714 0  L 10.8571428571429 0  C 11.0119047619048 0  11.1458333333333 0.0420572916666643  11.2589285714286 0.126171875  C 11.3720238095238 0.210286458333333  11.4285714285714 0.309895833333333  11.4285714285714 0.425  C 11.4285714285714 0.460416666666665  11.4345238095238 0.548958333333332  11.4464285714286 0.690625  C 11.4583333333333 0.832291666666665  11.4613095238095 0.949609375000001  11.4553571428571 1.042578125  C 11.4494047619048 1.135546875  11.4315476190476 1.23958333333333  11.4017857142857 1.3546875  C 11.3720238095238 1.46979166666666  11.3125 1.55611979166666  11.2232142857143 1.613671875  C 11.1339285714286 1.67122395833333  11.0119047619048 1.7  10.8571428571429 1.7  L 5.14285714285714 1.7  C 4.35714285714286 1.7  3.68452380952381 1.90807291666666  3.125 2.32421875  C 2.56547619047619 2.74036458333333  2.28571428571429 3.240625  2.28571428571429 3.825  L 2.28571428571429 13.175  C 2.28571428571429 13.759375  2.56547619047619 14.2596354166667  3.125 14.67578125  C 3.68452380952381 15.0919270833333  4.35714285714286 15.3  5.14285714285714 15.3  L 10.2857142857143 15.3  L 10.4821428571429 15.3  L 10.7142857142857 15.3  C 10.7142857142857 15.3  10.7827380952381 15.3044270833333  10.9196428571429 15.31328125  C 11.0565476190476 15.3221354166667  11.125 15.3354166666667  11.125 15.353125  C 11.125 15.3708333333333  11.172619047619 15.3951822916667  11.2678571428571 15.426171875  C 11.3630952380952 15.4571614583333  11.4047619047619 15.4970052083333  11.3928571428571 15.545703125  Z M 27.6607142857143 7.90234375  C 27.8869047619048 8.07057291666667  28 8.26979166666667  28 8.5  C 28 8.73020833333333  27.8869047619048 8.92942708333333  27.6607142857143 9.09765625  L 17.9464285714286 16.32265625  C 17.7202380952381 16.4908854166667  17.452380952381 16.575  17.1428571428571 16.575  C 16.8333333333333 16.575  16.5654761904762 16.4908854166667  16.3392857142857 16.32265625  C 16.1130952380952 16.1544270833333  16 15.9552083333333  16 15.725  L 16 11.9  L 8 11.9  C 7.69047619047619 11.9  7.42261904761905 11.8158854166667  7.19642857142857 11.64765625  C 6.97023809523809 11.4794270833333  6.85714285714286 11.2802083333333  6.85714285714286 11.05  L 6.85714285714286 5.95  C 6.85714285714286 5.71979166666666  6.97023809523809 5.52057291666666  7.19642857142857 5.35234375  C 7.42261904761905 5.18411458333333  7.69047619047619 5.1  8 5.1  L 16 5.1  L 16 1.275  C 16 1.04479166666666  16.1130952380952 0.845572916666664  16.3392857142857 0.677343749999999  C 16.5654761904762 0.509114583333333  16.8333333333333 0.425  17.1428571428571 0.425  C 17.452380952381 0.425  17.7202380952381 0.509114583333333  17.9464285714286 0.677343749999999  L 27.6607142857143 7.90234375  Z " fill-rule="nonzero" fill="#19c79b" stroke="none" transform="matrix(1 0 0 1 926 9 )" />
  </g>
</svg>